<?xml version="1.0" encoding="UTF-8"?>
<svg viewBox="0 0 500 375" xmlns="http://www.w3.org/2000/svg">
 <defs>
  <linearGradient id="a" x1=".35915" x2=".55282" y1=".81001" y2=".030005">
   <stop stop-color="#fff" offset="0"/>
   <stop stop-color="#fff" stop-opacity="0" offset="1"/>
  </linearGradient>
 </defs>
 <g fill-rule="evenodd">
  <g stroke="#000">
   <path d="m145.01 137.39s144.86-48.966 144.86-58.147c0-9.1812-4.081-4.0806-5.101-14.282 16.322-19.382 0-20.403-11.221-26.523-7.141 17.342-46.926 33.664-46.926 33.664l-90.792 49.986 9.181 15.302z" fill="#fff" stroke-width="1.553"/>
   <path d="m375.92 59.859c-3.06-6.1207-22.443-12.242-26.523-8.161-4.081 4.0805-23.983 15.065-30.104 19.146-6.121 4.0806-8.424 11.222-16.822 10.438-6.121-3.0604-24.483-12.242-25.504-6.1208-1.02 6.1208-6.12 41.826 21.423 41.826 27.544 0 57.128 10.201 65.289-6.121s12.241-51.007 12.241-51.007z" stroke-width="1.425"/>
   <path d="m395.94 152.69s1.02-51.006-3.061-60.187c-4.08-9.1812-12.241-27.544-16.322-31.624-4.08-4.0805-7.141-5.1007-11.221 0-4.081 5.1006-4.081 23.463-9.182 30.604-5.1 7.1409-8.161 12.242-18.362 13.262s-21.423-4.08-30.604-12.241c-9.181-8.1611-15.302-18.362-22.443-20.403-7.141-2.0402-8.161 0-20.403 7.141-12.241 7.1409-113.23 44.886-113.23 44.886l-10.202-1.02 104.05-61.208s-83.651 44.885-98.953 53.047c-15.302 8.161-23.463 16.322-31.624 17.342s-32.644-5.101-39.785-1.02c-7.1409 4.08-14.282 6.12-17.342 14.281-3.0604 8.162-6.1208 35.705-6.1208 35.705s12.242 16.322 27.544 20.403c15.302 4.08 89.772 20.402 108.13 17.342 18.363-3.06 47.947-3.06 60.188-10.201 12.242-7.141 34.685-8.161 45.906-8.161 11.222 0 61.208 4.08 74.47-2.041 13.262-6.12 21.423-29.583 25.503-33.664 4.081-4.081 3.061-12.242 3.061-12.242z" fill="#fff" stroke-width="1.553"/>
  </g>
  <path d="m393.38 144.75c2.256-5.641 2.256 31.588 1.128 33.844-117.33 22.563-186.14 7.897-186.14 7.897s86.866 7.897 174.86-20.306c7.897-6.769 10.154-21.435 10.154-21.435z" fill-opacity=".227"/>
  <g stroke="#000">
   <path d="m397.98 158.4l3.06 24.878s0 1.555-1.02 6.997-2.04 8.552-8.161 10.884c-6.121 2.333-63.248 10.884-66.309 10.884-3.06 0-26.523-6.219-38.765-4.664-12.241 1.555-20.402 3.109-26.523 5.442-6.121 2.332-19.383 9.329-44.886 10.106-25.503 0.778-53.047 2.333-82.631-3.887-29.583-6.219-30.693-6.94-54.984-16.893-13.773-6.88-24.525-12.398-32.791-21.061-0.2661-15.998 10.246-30.46 10.246-24.241 5.6453 16.099 11.354 14.417 30.087 23.08 14.882 5.442 38.262 18.902 57.645 16.57 19.382-2.333 58.147-8.552 66.308-8.552s76.51 4.664 97.933 2.332 68.349-10.107 78.55-13.994c10.202-3.887 12.242-17.881 12.242-17.881z" fill="#171717" stroke-width="1.356"/>
   <path d="m141.93 118.01l22.015 13.499 6.074-30.841 46.38 2.942 3.061-28.446 45.906 8.1611-10.202-16.322-19.382-1.0202 5.693 26.168-45.196-6.1973-6.712 29.779-47.637 2.277z" fill="#fff" stroke-linecap="round" stroke-linejoin="round" stroke-width="6.25"/>
  </g>
  <path d="m136.44 127.57s-8.161 4.08-17.342 5.1-35.704-2.04-35.704-2.04-11.222 0-1.0201 6.121c10.201 6.121 87.732 24.483 76.51 18.362-11.221-6.121-39.785-9.181-47.946-14.282-8.161-5.1 25.503-13.261 25.503-13.261z" fill="url(#a)"/>
  <path d="m373.31 65.736s-2.172-8.1611-4.443-2.0403c-2.27 6.1208-4.826 21.423-9.435 27.544-3.133 5.2226-19.144 23.617-6.148 13.749 21.322-22.443 20.026-39.253 20.026-39.253z" fill="#fff" fill-opacity=".616"/>
  <path d="m233.74 103.72s-89.772 28.564-76.51 34.685c13.261 6.12 76.51-34.685 76.51-34.685z" fill-opacity=".054"/>
  <g stroke="#000">
   <g fill="none" stroke-width="4.659">
    <g stroke-linecap="round" stroke-linejoin="round">
     <path d="m256.18 67c9.182-3.0604 6.121-3.0604 14.282-1.0202 8.161 2.0403 16.322 12.242 7.141 13.262-9.181 1.0201-16.322-3.0604-21.423-12.242z"/>
     <path d="m257.2 63.94s-4.081-9.1812-11.222-8.1611c-7.141 1.0202-17.342 8.1611-9.181 5.1007 7.141 5.1006 20.403 3.0604 20.403 3.0604z"/>
    </g>
    <path d="m247 89.443l9.181-23.463s-19.382 10.201-25.503 15.302"/>
   </g>
   <path d="m323.4 122.87s-26.757-12.019-32.838-18.575c-6.081-6.5562-8.514-10.927-12.163-10.927-3.648 0-83.921 37.151-91.218 40.429-7.298 3.278-34.055 6.556-17.028 8.741 17.028 2.186 70.543 0 88.786-4.37 18.244-4.371 64.461-15.298 64.461-15.298z" fill="#fff" fill-opacity=".216" stroke-linejoin="round" stroke-width="1.541"/>
   <path d="m301.2 87.358s27.439 8.0049 40.436 2.6683c12.998-5.3365 28.884-25.349 34.66-28.017 5.777-2.6683 17.5-6.805 27.61-0.1343 10.109 6.6707 10.294-0.7009 13.182 13.975s3.978 40.859-7.576 43.527c-11.553 2.669-108.31-32.019-108.31-32.019z" stroke-width="1.425"/>
   <path d="m218.89 176.74l83.762-84.05s-7.221-4.0024-4.333-10.673c2.889-6.6707 7.221-20.012 21.663-18.678 14.442 1.3342 38.992-2.6682 40.437 6.6707 1.444 9.339-1.445 17.344 0 25.349 1.444 8.005-5.777 2.6683-10.11 8.005-4.332 5.336-115.53 97.392-115.53 97.392l-17.33-6.671 1.444-17.344z" fill="#fff" stroke-width=".921"/>
  </g>
  <path d="m385.1 66.392c5.008-5.2225 14.703-4.4617 18.704-0.1253 7.085 3.5298 19.914 10.255 10.688 28.306-3.296 10.318-8.973 23.109-12.436 13.852 1 15.177-0.50302-35.252-16.956-42.033z" fill-opacity=".324"/>
  <g stroke="#000">
   <path d="m128.35 254.13s5.777-28.017 14.442-32.02c8.665-4.002 36.104-16.009 43.325-21.346s18.774-26.683 25.995-32.019c7.221-5.337 49.101-48.029 59.211-54.7 10.109-6.671 18.774-33.354 24.55-32.019 5.777 1.3341 11.554 6.6707 5.777 16.01-5.777 9.3387-80.873 78.714-80.873 84.051s2.888 13.341 8.665 13.341c5.776 0 98.203-94.723 111.2-97.392 12.998-2.6683 30.328-5.3366 38.993-1.3342 8.665 4.0029 23.107 20.012 24.551 14.676 1.444-5.337 18.63-26.672 8.521-37.346-4.122-8.9267-9.305-10.67-16.526-13.338-7.221-2.6683-5.394-3.0768 9.449 1.32 11.553 5.3365 20.218 1.3341 23.107 13.341 2.888 12.007 10.109 13.341 12.997 33.353s10.109 69.376 10.109 69.376l-67.876 49.363-8.665 8.005-20.218 34.687s-25.995 24.015-54.878 25.349-79.429 0-92.427-4.003c-12.997-4.002-59.211-13.341-67.876-20.012-8.665-6.67-11.553-17.343-11.553-17.343z" fill="#fff" stroke-width="1.675"/>
   <path d="m128.35 252.84s0 18.097 1.444 24.129c1.444 6.033 4.333 13.573 11.554 16.589 7.22 3.016 49.101 18.097 95.315 19.605 46.213 1.508 64.987-1.508 89.538-10.556 24.551-9.049 28.883-13.573 31.771-21.113 2.889-7.541 5.777-21.114-7.22-21.114-12.998 0-30.328 19.606-41.881 25.638-11.554 6.032-75.097 7.54-75.097 7.54s-5.776-7.54-10.109-13.572c-4.332-6.033-89.538-12.065-95.315-27.146z" stroke-width=".712"/>
  </g>
  <path d="m195.78 207.43s-24.551 6.67-33.216 12.007c-8.665 5.336-8.665 2.668-7.221 6.671 1.444 4.002 24.551 16.009 67.876 6.67s118.42-26.682 90.982-25.348c-27.439 1.334-75.096 14.675-85.205 13.341-10.11-1.334-33.216-13.341-33.216-13.341z" fill="#bfbfbf"/>
  <path d="m360.42 264.8s1.444-23.258 21.662-37.794 56.323-34.887 63.543-45.062c7.221-10.176 7.221-14.537 7.221-14.537s5.777 36.341 1.444 46.516c-4.332 10.175-59.21 33.433-66.431 33.433s-4.333 0-11.554 2.907c-7.22 2.908-15.885 14.537-15.885 14.537z"/>
  <path d="m407.27 111.04s8.988-10.586 9.862-18.591c0.87399-8.0048 5.101-11.038-1.892-19.043-7.562-7.5349-26.988-14.943-19.994-13.609 6.993 1.3341 25.754 7.6284 28.376 15.633 2.623 8.0048 0.25702 18.266-4.988 26.27-5.245 8.005-7.867 21.347-11.364 9.339z" fill="#bfbfbf"/>
  <g stroke="#000">
   <g stroke-linecap="round" stroke-linejoin="round">
    <g fill="#fff">
     <path d="m211.67 183.42l33.215 9.339-10.109-36.022 53.434-6.67-10.109-34.688 59.211-9.339-20.218-16.01-25.995 8.0049 20.218 30.685-57.767 9.339 11.554 34.688-53.434 10.673z" stroke-width="7.088"/>
     <path d="m280.99 196.76l72.208-74.712s2.888-5.337 11.553-4.003 10.109 6.671 18.774 9.339c8.665 2.669 25.995 8.005 27.439 6.671 1.445-1.334-43.325 37.356-60.655 45.361-17.329 8.005-57.766 21.346-69.319 17.344z" fill-opacity=".259" stroke-width="1.675"/>
    </g>
    <path d="m315.85 87.293s-2.937-7.3422-13.216-8.8107c-10.279-1.4684-26.432 11.748-16.153 10.279 10.279-1.4684 41.116-8.8106 51.395-5.8738 10.279 2.9369 29.369 19.09 14.685 19.09-14.685 0-36.711-14.684-36.711-14.684z" fill="none" stroke-width="7.088"/>
   </g>
   <path d="m292.35 107.85s13.216-13.216 20.558-19.09c7.342-5.8738 1.468 19.09 5.874 33.775 4.405 14.684 1.468 13.216 1.468 13.216" fill="none" stroke-width="7.088"/>
  </g>
 </g>
</svg>
